<svg width="27" height="27" viewBox="0 0 27 27" fill="none" xmlns="http://www.w3.org/2000/svg">
<circle cx="13.5" cy="13.5" r="13.5" fill="url(#paint0_linear_52_28256)"/>
<path d="M20.7617 10.3485L12.1489 18.7678C12.0739 18.8414 11.9848 18.8998 11.8866 18.9397C11.7885 18.9795 11.6832 19 11.577 19C11.4707 19 11.3655 18.9795 11.2673 18.9397C11.1692 18.8998 11.08 18.8414 11.005 18.7678L7.23691 15.0844C7.1618 15.0109 7.10222 14.9238 7.06157 14.8279C7.02092 14.7319 7 14.6291 7 14.5253C7 14.4214 7.02092 14.3186 7.06157 14.2227C7.10222 14.1268 7.1618 14.0396 7.23691 13.9662C7.31202 13.8927 7.40118 13.8345 7.49932 13.7948C7.59745 13.755 7.70263 13.7346 7.80885 13.7346C7.91507 13.7346 8.02025 13.755 8.11839 13.7948C8.21652 13.8345 8.30569 13.8927 8.3808 13.9662L11.5776 17.0912L19.6192 9.23159C19.7709 9.0833 19.9766 9 20.1911 9C20.4057 9 20.6114 9.0833 20.7631 9.23159C20.9148 9.37987 21 9.58098 21 9.79069C21 10.0004 20.9148 10.2015 20.7631 10.3498L20.7617 10.3485Z" fill="white" stroke="white"/>
<defs>
<linearGradient id="paint0_linear_52_28256" x1="0.4" y1="1.17391" x2="28.3677" y2="2.85326" gradientUnits="userSpaceOnUse">
<stop stop-color="#00FF0A"/>
<stop offset="1" stop-color="#8FFF00"/>
</linearGradient>
</defs>
</svg>
