<svg width="130" height="59" viewBox="0 0 130 59" fill="none" xmlns="http://www.w3.org/2000/svg">
<path d="M24.8048 0.977898V58.0221H11.4989V11.5718H0V0.977898H24.8048Z" fill="#2E2E2E"/>
<path d="M74.1353 28.0331C76.9826 29.4457 79.1455 31.2928 80.624 33.5746C82.1572 35.8564 82.9237 38.4912 82.9237 41.4793C82.9237 45.0106 81.9107 48.1073 79.8847 50.7693C77.8587 53.3771 75.0114 55.4144 71.3427 56.8812C67.674 58.2937 63.4303 59 58.6118 59C53.7932 59 49.5495 58.2937 45.8808 56.8812C42.2669 55.4144 39.4469 53.3771 37.4209 50.7693C35.4496 48.1073 34.464 45.0106 34.464 41.4793C34.464 38.4912 35.2032 35.8564 36.6817 33.5746C38.2149 31.2928 40.3778 29.4457 43.1703 28.0331C41.0348 26.7293 39.3921 25.0994 38.2422 23.1436C37.0923 21.1335 36.5174 18.8517 36.5174 16.2983C36.5174 12.9843 37.4483 10.105 39.31 7.66022C41.1717 5.21547 43.7727 3.34116 47.1128 2.03729C50.453 0.679097 54.286 0 58.6118 0C62.9923 0 66.8526 0.679097 70.1928 2.03729C73.5877 3.34116 76.216 5.21547 78.0778 7.66022C79.9395 10.105 80.8704 12.9843 80.8704 16.2983C80.8704 18.8517 80.2954 21.1335 79.1455 23.1436C77.9956 25.0994 76.3256 26.7293 74.1353 28.0331ZM58.6118 9.69751C55.9287 9.69751 53.7658 10.3494 52.1231 11.6533C50.5351 12.9029 49.7412 14.6413 49.7412 16.8688C49.7412 19.0419 50.5351 20.7532 52.1231 22.0028C53.711 23.2523 55.8739 23.8771 58.6118 23.8771C61.3496 23.8771 63.5399 23.2523 65.1826 22.0028C66.8253 20.7532 67.6466 19.0419 67.6466 16.8688C67.6466 14.6413 66.8253 12.9029 65.1826 11.6533C63.5399 10.3494 61.3496 9.69751 58.6118 9.69751ZM58.6118 49.3025C61.9519 49.3025 64.5802 48.5691 66.4967 47.1022C68.468 45.581 69.4536 43.5709 69.4536 41.0718C69.4536 38.5727 68.468 36.5898 66.4967 35.1229C64.5802 33.6561 61.9519 32.9226 58.6118 32.9226C55.3263 32.9226 52.7254 33.6561 50.8089 35.1229C48.8924 36.5898 47.9342 38.5727 47.9342 41.0718C47.9342 43.6252 48.8924 45.6354 50.8089 47.1022C52.7254 48.5691 55.3263 49.3025 58.6118 49.3025Z" fill="#2E2E2E"/>
<path d="M130 34.471H115.708V48.3246H105.113V34.471H90.9037V24.529H105.113V10.6754H115.708V24.529H130V34.471Z" fill="#2E2E2E"/>
</svg>
