<svg width="68" height="79" viewBox="0 0 68 79" fill="none" xmlns="http://www.w3.org/2000/svg">
<path d="M12.5762 59.7534C12.5762 61.8165 14.2678 63.5005 16.349 63.5005H20.6621V74.1156C20.6621 76.8047 22.832 79 25.4978 79C28.1724 79 30.3334 76.8135 30.3334 74.1156V63.4916H37.8614V74.1068C37.8614 76.7959 40.0312 78.9912 42.697 78.9912C45.3717 78.9912 47.5327 76.8047 47.5327 74.1068V63.4916H51.8458C53.927 63.4916 55.6186 61.8077 55.6186 59.7446V24.9015H12.5762V59.7534ZM44.2026 6.84518L48.1792 1.1144C48.4095 0.779374 48.3563 0.329729 48.0463 0.109314C47.7364 -0.102283 47.2935 0.00351614 47.0633 0.338546L42.9362 6.29855C40.2172 5.23174 37.1883 4.64103 34.0088 4.64103C30.8294 4.64103 27.8005 5.23174 25.0815 6.29855L20.9544 0.347362C20.7241 0.0123326 20.2813 -0.102283 19.9713 0.118132C19.6614 0.329729 19.6082 0.770557 19.8385 1.12322L23.815 6.85399C17.4915 9.78109 13.0633 15.3267 12.4965 21.8069H55.5389C54.9544 15.3179 50.5173 9.77228 44.2026 6.84518ZM24.9221 15.8822C24.4509 15.8822 23.9903 15.7431 23.5985 15.4825C23.2067 15.2219 22.9014 14.8515 22.7211 14.4181C22.5407 13.9847 22.4936 13.5079 22.5855 13.0478C22.6774 12.5878 22.9043 12.1652 23.2375 11.8335C23.5707 11.5018 23.9952 11.2759 24.4573 11.1844C24.9195 11.0929 25.3985 11.1399 25.8338 11.3194C26.2691 11.4989 26.6412 11.8029 26.903 12.1929C27.1648 12.5829 27.3045 13.0414 27.3045 13.5105C27.3029 14.139 27.0513 14.7413 26.6049 15.1857C26.1585 15.6301 25.5534 15.8805 24.9221 15.8822ZM43.379 15.8822C42.9078 15.8822 42.4472 15.7431 42.0554 15.4825C41.6636 15.2219 41.3583 14.8515 41.1779 14.4181C40.9976 13.9847 40.9504 13.5079 41.0424 13.0478C41.1343 12.5878 41.3612 12.1652 41.6944 11.8335C42.0276 11.5018 42.4521 11.2759 42.9142 11.1844C43.3763 11.0929 43.8554 11.1399 44.2907 11.3194C44.726 11.4989 45.0981 11.8029 45.3599 12.1929C45.6216 12.5829 45.7614 13.0414 45.7614 13.5105C45.7597 14.139 45.5082 14.7413 45.0618 15.1857C44.6153 15.6301 44.0103 15.8805 43.379 15.8822ZM63.1643 24.7605C60.4897 24.7605 58.3287 26.947 58.3287 29.6448V48.7239C58.3287 51.4129 60.4985 53.6083 63.1643 53.6083C65.839 53.6083 68 51.4218 68 48.7239V29.636C68.0088 26.9381 65.8478 24.7605 63.1643 24.7605ZM4.83563 24.7605C2.16098 24.7605 0 26.947 0 29.6448V48.7239C0 51.4129 2.16983 53.6083 4.83563 53.6083C7.51028 53.6083 9.67126 51.4218 9.67126 48.7239V29.636C9.67126 26.9381 7.50143 24.7605 4.83563 24.7605Z" fill="white"/>
</svg>
