<?xml version="1.0" encoding="utf-8"?><svg viewBox="0 0 18 14" xmlns="http://www.w3.org/2000/svg" xmlns:xlink="http://www.w3.org/1999/xlink"><style>:root>svg{display:none}:root>svg:target{display:block}</style><svg fill="none" viewBox="0 0 9 11" id="sidebar-arrow" xmlns="http://www.w3.org/2000/svg"><path d="M9 5.5L.75 10.263V.737L9 5.5z" fill="#fff"/></svg><svg viewBox="0 0 16 14" id="telegram" xmlns="http://www.w3.org/2000/svg"><path d="M13.953 1.074L1.19 6.021c-.514.23-.687.692-.124.942L4.34 8.01l7.916-4.918c.432-.308.875-.226.494.114l-6.8 6.187-.213 2.619c.198.404.56.406.791.205l1.881-1.789 3.222 2.425c.748.445 1.155.158 1.316-.658l2.113-10.057c.22-1.005-.155-1.448-1.108-1.063z"/></svg><svg viewBox="0 0 18 12" id="vk" xmlns="http://www.w3.org/2000/svg"><path clip-rule="evenodd" d="M17.566 1.559c.127-.404 0-.698-.564-.698h-1.875c-.474 0-.692.257-.82.532 0 0-.964 2.35-2.311 3.872-.437.44-.637.588-.874.588-.127 0-.291-.147-.291-.55V1.54c0-.477-.146-.697-.546-.697h-2.95a.453.453 0 00-.473.44c0 .459.674.57.746 1.854v2.79c0 .606-.107.717-.345.717-.637 0-2.185-2.368-3.113-5.065-.18-.534-.364-.736-.837-.736H1.42c-.546 0-.637.257-.637.532 0 .495.637 2.99 2.967 6.294 1.547 2.256 3.75 3.468 5.734 3.468 1.201 0 1.347-.275 1.347-.734V8.696c0-.55.109-.642.491-.642.273 0 .765.147 1.875 1.23 1.274 1.284 1.493 1.871 2.203 1.871h1.875c.546 0 .8-.275.655-.807-.164-.532-.783-1.303-1.584-2.22-.437-.514-1.092-1.083-1.292-1.358-.273-.367-.2-.514 0-.844-.018 0 2.275-3.266 2.512-4.369"/></svg><svg viewBox="0 0 16 14" id="youtube" xmlns="http://www.w3.org/2000/svg"><path clip-rule="evenodd" d="M8 .888c.653 0 1.323.017 1.972.044l.767.037.734.043.688.047.628.049a2.904 2.904 0 012.669 2.614l.03.325.058.695c.053.72.093 1.506.093 2.257 0 .75-.04 1.536-.093 2.256l-.058.695-.03.325a2.904 2.904 0 01-2.67 2.615l-.627.048-.687.047-.735.044-.767.037A47 47 0 018 13.11a47 47 0 01-1.973-.044l-.766-.037-.735-.044-.687-.047-.628-.048a2.904 2.904 0 01-2.669-2.615l-.03-.325-.058-.695C.396 8.505.364 7.752.361 7c0-.751.04-1.536.093-2.257l.057-.695.031-.325A2.904 2.904 0 013.21 1.108l.627-.05.688-.046L5.26.97l.767-.037A47.115 47.115 0 018 .888zM6.472 5.146v3.705c0 .353.382.573.688.397l3.208-1.852a.458.458 0 000-.794L7.16 4.75a.458.458 0 00-.688.397z"/></svg></svg>