<svg width="16" height="19" viewBox="0 0 16 19" fill="none" xmlns="http://www.w3.org/2000/svg">
<path d="M2.9591 14.3711C2.9591 14.8673 3.35712 15.2723 3.84683 15.2723H4.86168V17.8253C4.86168 18.472 5.37223 19 5.99948 19C6.62881 19 7.13727 18.4741 7.13727 17.8253V15.2701H8.90857V17.8232C8.90857 18.4699 9.41912 18.9979 10.0464 18.9979C10.6757 18.9979 11.1842 18.472 11.1842 17.8232V15.2701H12.199C12.6887 15.2701 13.0867 14.8651 13.0867 14.369V5.98897H2.9591V14.3711ZM10.4006 1.64631L11.3363 0.268021C11.3905 0.187444 11.378 0.0793019 11.305 0.0262908C11.2321 -0.0245998 11.1279 0.000845653 11.0737 0.0814224L10.1026 1.51484C9.46288 1.25827 8.75019 1.1162 8.00208 1.1162C7.25397 1.1162 6.54128 1.25827 5.90153 1.51484L4.93045 0.0835428C4.87627 0.00296606 4.77207 -0.0245996 4.69914 0.0284114C4.6262 0.079302 4.6137 0.185324 4.66788 0.270142L5.60354 1.64843C4.11565 2.35242 3.07372 3.68617 2.94035 5.2447H13.068C12.9304 3.68405 11.8864 2.35029 10.4006 1.64631ZM5.86402 3.81976C5.75316 3.81976 5.64478 3.78631 5.55259 3.72363C5.46041 3.66095 5.38856 3.57187 5.34613 3.46764C5.3037 3.36342 5.2926 3.24873 5.31423 3.13808C5.33586 3.02744 5.38925 2.9258 5.46765 2.84603C5.54604 2.76626 5.64593 2.71193 5.75466 2.68992C5.8634 2.66791 5.97611 2.67921 6.07854 2.72238C6.18097 2.76555 6.26852 2.83866 6.33012 2.93247C6.39171 3.02627 6.42459 3.13655 6.42459 3.24936C6.4242 3.40052 6.36502 3.54538 6.25998 3.65226C6.15493 3.75915 6.01258 3.81937 5.86402 3.81976ZM10.2068 3.81976C10.096 3.81976 9.98757 3.78631 9.89539 3.72363C9.8032 3.66095 9.73136 3.57187 9.68893 3.46764C9.6465 3.36342 9.6354 3.24873 9.65703 3.13808C9.67866 3.02744 9.73205 2.9258 9.81044 2.84603C9.88884 2.76626 9.98872 2.71193 10.0975 2.68992C10.2062 2.66791 10.3189 2.67921 10.4213 2.72238C10.5238 2.76555 10.6113 2.83866 10.6729 2.93247C10.7345 3.02627 10.7674 3.13655 10.7674 3.24936C10.767 3.40052 10.7078 3.54538 10.6028 3.65226C10.4977 3.75915 10.3554 3.81937 10.2068 3.81976ZM14.8622 5.95504C14.2329 5.95504 13.7244 6.48091 13.7244 7.12977V11.7184C13.7244 12.3651 14.2349 12.8931 14.8622 12.8931C15.4915 12.8931 16 12.3673 16 11.7184V7.12765C16.0021 6.47879 15.4936 5.95504 14.8622 5.95504ZM1.1378 5.95504C0.508465 5.95504 0 6.48091 0 7.12977V11.7184C0 12.3651 0.510549 12.8931 1.1378 12.8931C1.76713 12.8931 2.27559 12.3673 2.27559 11.7184V7.12765C2.27559 6.47879 1.76504 5.95504 1.1378 5.95504Z" fill="#262626"/>
</svg>
