<svg width="67" height="80" viewBox="0 0 67 80" fill="none" xmlns="http://www.w3.org/2000/svg">
<path d="M55.8238 76.7903C51.4947 81.012 46.768 80.3454 42.218 78.3457C37.403 76.3015 32.9855 76.2126 27.9055 78.3457C21.5443 81.1009 18.187 80.301 14.388 76.7903C-7.1692 54.4376 -3.98862 20.3974 20.4841 19.1531C26.4477 19.4642 30.6001 22.4416 34.0899 22.7082C39.3025 21.6417 44.2942 18.5754 49.8602 18.9754C56.5306 19.5086 61.5665 22.175 64.8796 26.9744C51.0971 35.2844 54.3661 53.5488 67 58.6593C64.482 65.3251 61.2131 71.9465 55.7797 76.8347L55.8238 76.7903ZM33.6482 18.8865C32.9855 8.97664 40.9812 0.799899 50.1695 0C51.4505 11.4652 39.8326 19.9975 33.6482 18.8865Z" fill="white"/>
</svg>
