<svg width="468" height="133" viewBox="0 0 468 133" fill="none" xmlns="http://www.w3.org/2000/svg">
<path d="M26.6018 0V26.9975C29.3286 26.5045 31.7598 25.93 34.226 25.6428C45.6505 24.3074 56.2154 26.0581 64.7186 34.5746C69.7599 39.6248 72.5956 45.8589 73.9298 52.7878C75.6724 61.84 75.3068 70.8146 72.0004 79.4631C67.4415 91.3878 58.3275 98.1304 46.1134 100.836C32.8878 103.767 19.8529 102.241 6.99692 98.503C4.77192 97.8547 1.85063 97.5753 0.644778 96.042C-0.475503 94.6174 0.205223 91.7371 0.201333 89.5013C0.185774 60.462 0.189664 31.4266 0.189664 2.38727C0.189664 1.63033 0.189664 0.86951 0.189664 0H26.6018ZM26.6913 64.0021C26.6913 69.355 26.7341 74.7118 26.6602 80.0647C26.6407 81.3923 26.9286 82.157 28.3639 82.2502C30.4878 82.3821 32.6194 82.7742 34.7277 82.681C40.0608 82.4481 44.1412 79.9444 46.5568 75.1738C49.4237 69.5142 49.4353 63.4354 48.3189 57.3993C47.8638 54.9421 46.8524 52.3724 45.4015 50.3539C40.757 43.8947 33.0123 44.1858 27.5276 46.0956C27.1036 46.2432 26.7263 47.1748 26.7224 47.7493C26.6602 53.1682 26.6874 58.5871 26.6913 64.0021Z" fill="white"/>
<path d="M149.739 88.0573C146.511 92.0671 142.87 95.2812 138.42 97.3191C124.354 103.767 110.055 104.349 96.102 97.3346C85.4749 91.9933 80.1535 82.5374 78.5042 71.0319C77.2361 62.1855 77.9908 53.4942 81.8884 45.296C87.7971 32.8783 98.0236 26.6792 111.455 25.4409C119.052 24.7383 126.482 25.5845 133.344 29.2411C142.465 34.0972 147.53 41.9616 149.934 51.7552C151.28 57.2324 151.793 62.7949 151.801 68.6796H104.251C103.224 73.5784 106.916 79.5019 112.078 81.5864C118.846 84.3191 126.851 82.487 132.037 77.0137C132.515 76.5091 132.993 76.0045 133.519 75.4494C133.876 75.6978 134.145 75.8608 134.394 76.051C139.431 79.991 144.469 83.9348 149.735 88.0534L149.739 88.0573ZM104.216 54.5268H126.797C126.735 47.3727 121.779 41.8995 115.621 42.0392C109.584 42.1751 103.928 48.3238 104.216 54.5268Z" fill="white"/>
<path d="M151.179 26.8772H161.603V8.46996H188.152V26.916C191.443 26.916 194.527 26.9897 197.608 26.881C198.997 26.8306 199.646 27.2653 200.097 28.5929C201.961 34.0778 203.941 39.52 205.995 45.3077H188.331C188.28 46.2121 188.218 46.8371 188.218 47.4581C188.214 56.6229 188.198 65.7877 188.237 74.9525C188.245 76.4276 188.408 77.9182 188.681 79.366C189.19 82.0794 190.598 83.2866 193.306 82.8363C195.488 82.4714 197.592 81.5515 199.685 80.7479C200.623 80.3869 201.436 79.7115 202.478 79.0749C204.664 84.1794 206.819 89.1247 208.846 94.1244C209.009 94.5281 208.453 95.5296 207.963 95.8479C202.264 99.5744 195.966 101.721 189.171 101.896C184.869 102.008 180.434 101.962 176.257 101.065C167.749 99.2367 162.735 92.9444 162.062 83.438C161.58 76.6255 161.716 69.7704 161.646 62.9346C161.588 57.1974 161.635 51.4641 161.635 45.3659C158.881 45.3659 156.251 45.2572 153.637 45.4047C151.75 45.5095 151.035 45.0631 151.116 42.9903C151.295 38.4137 151.171 33.8255 151.171 29.245V26.8733L151.179 26.8772Z" fill="white"/>
<path d="M198.23 10.0684C201.358 10.0684 204.201 10.0684 207.041 10.0684C211.771 10.0684 216.505 10.2004 221.223 10.0063C223.339 9.92089 224.098 10.7011 224.709 12.5799C230.411 30.1836 236.207 47.7601 241.976 65.3444C242.151 65.88 242.361 66.4041 242.754 67.4638C243.477 65.0532 244.072 63.1318 244.636 61.1987C247.608 50.9819 250.603 40.773 253.505 30.5368C253.91 29.1122 254.478 28.5921 256.002 28.6309C260.534 28.7396 265.07 28.7124 269.605 28.6425C270.897 28.6231 271.515 28.9337 271.9 30.2961C275.269 42.1432 278.735 53.9592 282.177 65.783C282.278 66.1362 282.438 66.4701 282.769 67.3241C283.372 65.2939 283.858 63.7412 284.293 62.173C287.277 51.4904 290.26 40.804 293.217 30.1098C293.466 29.2131 293.722 28.6386 294.847 28.6425C303.268 28.6891 311.69 28.6775 320.107 28.6891C320.228 28.6891 320.349 28.7667 320.675 28.8754C319.644 31.8333 318.633 34.7951 317.583 37.7452C310.11 58.7648 302.622 79.7805 295.169 100.808C294.769 101.934 294.232 102.419 292.96 102.403C287.261 102.337 281.559 102.353 275.86 102.403C274.608 102.415 274.098 101.98 273.736 100.754C270.29 89.1317 266.758 77.533 263.245 65.9305C263.105 65.4647 262.915 65.0105 262.553 64.009C261.332 68.0461 260.25 71.5784 259.196 75.1147C256.648 83.6429 254.077 92.1594 251.603 100.711C251.226 102.019 250.65 102.419 249.324 102.403C243.753 102.337 238.183 102.337 232.613 102.403C231.267 102.419 230.714 101.926 230.279 100.691C221.499 75.8251 212.669 50.9742 203.847 26.1194C202.186 21.4419 200.521 16.7644 198.86 12.0869C198.67 11.5512 198.522 11 198.23 10.0645V10.0684Z" fill="#FFD600"/>
<path d="M382.221 28.6658C390.253 28.6658 397.959 28.658 405.661 28.6736C407.404 28.6736 409.582 28.1612 410.761 28.9996C411.935 29.8381 412.145 32.0623 412.717 33.6965C416.953 45.8076 421.174 57.9225 425.402 70.0335C425.503 70.3207 425.647 70.5964 425.993 71.3727C426.429 70.1655 426.721 69.3814 426.993 68.5895C431.346 55.9777 435.722 43.3698 440.012 30.7348C440.553 29.1394 441.284 28.5959 443.019 28.6153C451.239 28.724 459.458 28.6619 468 28.6619C467.623 29.6518 467.346 30.4592 467.016 31.2433C455.019 59.5645 442.988 87.874 431.035 116.215C426.406 127.188 417.86 132.18 406.307 132.708C399.204 133.034 392.404 131.602 385.877 128.826C385.535 128.683 385.22 128.477 384.745 128.225C386.955 122.328 389.137 116.506 391.276 110.8C394.026 111.665 396.5 112.643 399.064 113.214C404.471 114.413 407.334 112.876 409.613 107.857C410.679 105.509 411.663 103.121 412.807 100.808C413.375 99.655 413.34 98.7196 412.811 97.5395C402.786 75.1069 392.813 52.6511 382.831 30.1991C382.653 29.7993 382.512 29.3878 382.225 28.658L382.221 28.6658Z" fill="#FFD600"/>
<path d="M321.27 38.3663C330.836 29.9701 341.859 26.6163 354.221 27.02C360.122 27.2141 365.821 28.1573 371.119 30.8318C380.871 35.75 384.469 44.251 384.59 54.557C384.718 65.5268 384.621 76.5005 384.621 87.4742C384.621 91.8644 384.57 96.2547 384.644 100.641C384.667 101.988 384.271 102.427 382.898 102.411C376.615 102.349 370.333 102.341 364.051 102.415C362.709 102.431 362.052 102.004 361.69 100.75C361.32 99.4687 360.768 98.2421 360.43 97.3415C356.855 99.0185 353.525 101.138 349.884 102.17C341.241 104.628 332.703 104.379 324.884 99.2242C313.281 91.581 311.662 70.4489 327.549 62.0371C333.936 58.6561 340.833 57.4606 347.869 56.6842C351.331 56.3038 354.809 56.0437 358.247 55.7332C359.496 50.0464 355.824 45.629 349.768 45.3224C344.112 45.0351 339.269 47.1235 334.764 50.2638C334.239 50.6287 333.718 51.0091 333.072 51.471C329.14 47.1041 325.258 42.7954 321.267 38.3624L321.27 38.3663ZM358.524 69.0514C353.844 69.4085 349.375 69.4707 345.232 71.3455C342.132 72.7469 340.335 76.3181 340.743 79.8504C341.082 82.7462 343.345 85.1723 346.574 85.7973C350.658 86.5891 354.4 85.5799 357.781 83.2237C358.111 82.9946 358.485 82.5327 358.489 82.1756C358.539 77.8785 358.52 73.5853 358.52 69.0592L358.524 69.0514Z" fill="#FFD600"/>
</svg>
