<svg width="21" height="19" viewBox="0 0 21 19" fill="none" xmlns="http://www.w3.org/2000/svg">
<path d="M4.2 19V16.8889L5.25 15.8333H2.1C1.5225 15.8333 1.02795 15.6264 0.616352 15.2127C0.204752 14.7989 -0.000698217 14.3021 1.78268e-06 13.7222V2.11111C1.78268e-06 1.53056 0.205802 1.03339 0.617402 0.619613C1.029 0.205835 1.5232 -0.000701912 2.1 1.79212e-06H18.9C19.4775 1.79212e-06 19.972 0.206891 20.3836 0.620668C20.7952 1.03445 21.0007 1.53126 21 2.11111V13.7222C21 14.3028 20.7942 14.7999 20.3826 15.2137C19.971 15.6275 19.4768 15.834 18.9 15.8333H15.75L16.8 16.8889V19H4.2ZM2.1 13.7222H18.9V2.11111H2.1V13.7222Z" fill="#262626"/>
</svg>
