<svg width="13" height="19" viewBox="0 0 13 19" fill="none" xmlns="http://www.w3.org/2000/svg">
<path fill-rule="evenodd" clip-rule="evenodd" d="M11 0H2C1.46957 0 0.960859 0.200178 0.585786 0.556497C0.210714 0.912816 0 1.39609 0 1.9V17.1C0 17.6039 0.210714 18.0872 0.585786 18.4435C0.960859 18.7998 1.46957 19 2 19H11C11.5304 19 12.0391 18.7998 12.4142 18.4435C12.7893 18.0872 13 17.6039 13 17.1V1.9C13 1.39609 12.7893 0.912816 12.4142 0.556497C12.0391 0.200178 11.5304 0 11 0ZM2 17.1V1.9H11V17.1H2Z" fill="#262626"/>
</svg>
